<!-- lucide | fingerprint (https://lucide.dev/icons/fingerprint) -->
<svg xmlns="http://www.w3.org/2000/svg" fill="none" viewBox="0 0 24 24" stroke-width="1.5" stroke="currentColor">
  <path stroke-linecap="round" stroke-linejoin="round" d="M15.75 5.25a3 3 0 0 1 3 3m3 0a6 6 0 0 1-7.029 5.912c-.563-.097-1.159.026-1.563.43L10.5 17.25H8.25v2.25H6v2.25H2.25v-2.818c0-.597.237-1.17.659-1.591l6.499-6.499c.404-.404.527-1 .43-1.563A6 6 0 1 1 21.75 8.25Z" />
</svg>

<svg xmlns="http://www.w3.org/2000/svg" width="24" height="24" viewBox="0 0 24 24" fill="none" stroke="white" stroke-width="2" stroke-linecap="round" stroke-linejoin="round" class="lucide lucide-fingerprint">
  <path d="M12 10a2 2 0 0 0-2 2c0 1.02-.1 2.51-.26 4"/>
  <path d="M14 13.12c0 2.38 0 6.38-1 8.88"/>
  <path d="M17.29 21.02c.12-.6.43-2.3.5-3.02"/>
  <path d="M2 12a10 10 0 0 1 18-6"/>
  <path d="M2 16h.01"/>
  <path d="M21.8 16c.2-2 .131-5.354 0-6"/>
  <path d="M5 19.5C5.5 18 6 15 6 12a6 6 0 0 1 .34-2"/>
  <path d="M8.65 22c.21-.66.45-1.32.57-2"/>
  <path d="M9 6.8a6 6 0 0 1 9 5.2v2"/>
</svg>